<svg xmlns="http://www.w3.org/2000/svg" xmlns:xlink="http://www.w3.org/1999/xlink" width="500" zoomAndPan="magnify" viewBox="0 0 375 374.999991" height="500" preserveAspectRatio="xMidYMid meet" version="1.0"><path fill="#d5d0ec" d="M 337.5 187.5 C 337.5 270.335938 270.335938 337.5 187.5 337.5 C 104.664062 337.5 37.5 270.335938 37.5 187.5 C 37.5 104.664062 104.664062 37.5 187.5 37.5 C 270.335938 37.5 337.5 104.664062 337.5 187.5 " fill-opacity="1" fill-rule="nonzero"/><path fill="#8484ca" d="M 187.5 12.5 C 90.992188 12.5 12.5 90.992188 12.5 187.5 C 12.5 284.007812 90.992188 362.5 187.5 362.5 C 284.007812 362.5 362.5 284.007812 362.5 187.5 C 362.5 90.992188 284.007812 12.5 187.5 12.5 Z M 187.5 375 C 84.105469 375 0 290.894531 0 187.5 C 0 84.105469 84.105469 0 187.5 0 C 290.894531 0 375 84.105469 375 187.5 C 375 290.894531 290.894531 375 187.5 375 " fill-opacity="1" fill-rule="nonzero"/><path fill="#5355af" d="M 187.5 175 C 145.484375 175 110.425781 204.613281 101.976562 244.089844 C 121.3125 270.386719 152.367188 287.5 187.5 287.5 C 222.632812 287.5 253.6875 270.386719 273.023438 244.089844 C 264.574219 204.613281 229.515625 175 187.5 175 " fill-opacity="1" fill-rule="nonzero"/><path fill="#8484ca" d="M 143.75 131.25 C 143.75 155.417969 163.328125 175 187.5 175 C 211.667969 175 231.25 155.417969 231.25 131.25 C 231.25 107.078125 211.667969 87.5 187.5 87.5 C 163.328125 87.5 143.75 107.078125 143.75 131.25 " fill-opacity="1" fill-rule="nonzero"/></svg>