<svg xmlns="http://www.w3.org/2000/svg" xmlns:xlink="http://www.w3.org/1999/xlink" width="500" zoomAndPan="magnify" viewBox="0 0 375 374.999991" height="500" preserveAspectRatio="xMidYMid meet" version="1.0"><path fill="#000000" d="M 183.824219 0 C 180.816406 0.00390625 177.8125 0.0820312 174.808594 0.230469 C 171.804688 0.382812 168.804688 0.605469 165.8125 0.90625 C 162.820312 1.203125 159.835938 1.574219 156.863281 2.019531 C 153.886719 2.460938 150.925781 2.980469 147.976562 3.570312 C 145.027344 4.15625 142.09375 4.820312 139.179688 5.550781 C 136.261719 6.285156 133.363281 7.089844 130.488281 7.964844 C 127.609375 8.839844 124.753906 9.785156 121.925781 10.800781 C 119.09375 11.816406 116.289062 12.898438 113.511719 14.050781 C 110.734375 15.203125 107.984375 16.425781 105.269531 17.710938 C 102.550781 19 99.863281 20.351562 97.214844 21.769531 C 94.5625 23.1875 91.945312 24.671875 89.367188 26.21875 C 86.789062 27.765625 84.25 29.375 81.75 31.046875 C 79.25 32.71875 76.789062 34.449219 74.375 36.242188 C 71.960938 38.035156 69.589844 39.886719 67.265625 41.792969 C 64.941406 43.703125 62.664062 45.664062 60.4375 47.683594 C 58.210938 49.707031 56.03125 51.777344 53.90625 53.90625 C 51.777344 56.03125 49.707031 58.210938 47.683594 60.4375 C 45.664062 62.664062 43.703125 64.941406 41.792969 67.265625 C 39.886719 69.589844 38.035156 71.960938 36.242188 74.375 C 34.449219 76.789062 32.71875 79.25 31.046875 81.75 C 29.375 84.25 27.765625 86.789062 26.21875 89.367188 C 24.671875 91.945312 23.1875 94.5625 21.769531 97.214844 C 20.351562 99.863281 19 102.550781 17.710938 105.269531 C 16.425781 107.984375 15.203125 110.734375 14.050781 113.511719 C 12.898438 116.289062 11.816406 119.09375 10.800781 121.925781 C 9.785156 124.753906 8.839844 127.609375 7.964844 130.488281 C 7.089844 133.363281 6.285156 136.261719 5.550781 139.179688 C 4.820312 142.09375 4.15625 145.027344 3.570312 147.976562 C 2.980469 150.925781 2.460938 153.886719 2.019531 156.863281 C 1.574219 159.835938 1.203125 162.820312 0.90625 165.8125 C 0.605469 168.804688 0.382812 171.804688 0.230469 174.808594 C 0.0820312 177.8125 0.00390625 180.816406 0 183.824219 C 0.0429688 186.820312 0.15625 189.8125 0.34375 192.804688 C 0.53125 195.796875 0.789062 198.78125 1.121094 201.757812 C 1.449219 204.738281 1.851562 207.707031 2.328125 210.667969 C 2.800781 213.625 3.34375 216.570312 3.960938 219.503906 C 4.578125 222.4375 5.261719 225.355469 6.019531 228.253906 C 6.777344 231.152344 7.601562 234.03125 8.496094 236.894531 C 9.394531 239.753906 10.355469 242.589844 11.386719 245.402344 C 12.421875 248.21875 13.519531 251.003906 14.6875 253.765625 C 15.851562 256.523438 17.085938 259.257812 18.382812 261.957031 C 19.679688 264.660156 21.042969 267.328125 22.46875 269.960938 C 23.898438 272.597656 25.386719 275.199219 26.9375 277.761719 C 28.492188 280.324219 30.101562 282.847656 31.777344 285.335938 C 33.449219 287.820312 35.183594 290.265625 36.976562 292.667969 C 38.765625 295.070312 40.617188 297.429688 42.519531 299.742188 C 44.425781 302.054688 46.386719 304.320312 48.398438 306.539062 C 50.414062 308.757812 52.480469 310.925781 54.601562 313.046875 C 56.71875 315.164062 58.890625 317.230469 61.109375 319.246094 C 63.328125 321.261719 65.59375 323.222656 67.90625 325.125 C 70.21875 327.03125 72.578125 328.878906 74.980469 330.671875 C 77.382812 332.464844 79.824219 334.195312 82.3125 335.871094 C 84.796875 337.542969 87.324219 339.15625 89.886719 340.707031 C 92.449219 342.261719 95.050781 343.75 97.683594 345.175781 C 100.320312 346.605469 102.988281 347.964844 105.691406 349.265625 C 108.390625 350.5625 111.121094 351.792969 113.882812 352.960938 C 116.644531 354.128906 119.429688 355.226562 122.242188 356.257812 C 125.058594 357.289062 127.894531 358.253906 130.753906 359.148438 C 133.613281 360.046875 136.492188 360.871094 139.394531 361.628906 C 142.292969 362.382812 145.210938 363.070312 148.144531 363.6875 C 151.074219 364.300781 154.023438 364.847656 156.980469 365.320312 C 159.941406 365.792969 162.910156 366.195312 165.886719 366.527344 C 168.867188 366.859375 171.851562 367.117188 174.84375 367.304688 C 177.832031 367.488281 180.828125 367.605469 183.824219 367.648438 C 195.515625 367.605469 207.097656 366.472656 218.578125 364.246094 C 230.054688 362.019531 241.222656 358.742188 252.082031 354.410156 C 253.835938 355.636719 255.640625 356.78125 257.496094 357.847656 C 259.347656 358.914062 261.246094 359.898438 263.183594 360.800781 C 265.125 361.699219 267.101562 362.515625 269.109375 363.246094 C 271.121094 363.972656 273.160156 364.613281 275.226562 365.164062 C 277.292969 365.714844 279.378906 366.175781 281.488281 366.542969 C 283.59375 366.914062 285.714844 367.1875 287.84375 367.371094 C 289.976562 367.554688 292.109375 367.648438 294.25 367.644531 C 296.386719 367.640625 298.523438 367.546875 300.652344 367.359375 C 302.78125 367.167969 304.902344 366.886719 307.007812 366.515625 C 309.113281 366.140625 311.199219 365.675781 313.265625 365.121094 C 315.328125 364.566406 317.367188 363.921875 319.375 363.1875 C 321.386719 362.453125 323.359375 361.636719 325.296875 360.730469 C 327.234375 359.824219 329.128906 358.835938 330.980469 357.765625 C 332.832031 356.695312 334.632812 355.546875 336.382812 354.316406 C 338.136719 353.089844 339.828125 351.789062 341.46875 350.410156 C 343.105469 349.035156 344.679688 347.589844 346.191406 346.078125 C 347.703125 344.5625 349.144531 342.988281 350.519531 341.347656 C 351.890625 339.710938 353.191406 338.015625 354.417969 336.261719 C 355.644531 334.507812 356.792969 332.707031 357.859375 330.851562 C 358.929688 329 359.914062 327.105469 360.816406 325.167969 C 361.722656 323.226562 362.539062 321.253906 363.269531 319.242188 C 364 317.234375 364.640625 315.195312 365.195312 313.128906 C 365.746094 311.0625 366.210938 308.976562 366.582031 306.871094 C 366.953125 304.761719 367.230469 302.644531 367.417969 300.515625 C 367.601562 298.382812 367.695312 296.25 367.695312 294.109375 C 367.695312 291.972656 367.601562 289.835938 367.414062 287.707031 C 367.230469 285.574219 366.949219 283.457031 366.578125 281.351562 C 366.207031 279.242188 365.746094 277.15625 365.191406 275.089844 C 364.636719 273.027344 363.996094 270.988281 363.265625 268.976562 C 362.535156 266.96875 361.714844 264.992188 360.8125 263.054688 C 359.910156 261.117188 358.921875 259.222656 357.855469 257.367188 C 356.785156 255.515625 355.636719 253.714844 354.410156 251.960938 C 358.808594 241.140625 362.121094 230 364.347656 218.535156 C 366.574219 207.074219 367.671875 195.5 367.648438 183.824219 C 367.644531 180.816406 367.566406 177.8125 367.414062 174.808594 C 367.265625 171.804688 367.039062 168.804688 366.742188 165.8125 C 366.445312 162.820312 366.074219 159.835938 365.628906 156.863281 C 365.183594 153.886719 364.667969 150.925781 364.078125 147.976562 C 363.488281 145.027344 362.828125 142.09375 362.09375 139.179688 C 361.363281 136.261719 360.558594 133.363281 359.683594 130.488281 C 358.808594 127.609375 357.863281 124.753906 356.847656 121.925781 C 355.832031 119.09375 354.746094 116.289062 353.59375 113.511719 C 352.441406 110.734375 351.222656 107.984375 349.9375 105.269531 C 348.648438 102.550781 347.296875 99.863281 345.875 97.214844 C 344.457031 94.5625 342.972656 91.945312 341.425781 89.367188 C 339.878906 86.789062 338.269531 84.25 336.597656 81.75 C 334.929688 79.25 333.195312 76.789062 331.402344 74.375 C 329.613281 71.960938 327.761719 69.589844 325.855469 67.265625 C 323.945312 64.941406 321.980469 62.664062 319.960938 60.4375 C 317.941406 58.210938 315.867188 56.03125 313.742188 53.90625 C 311.617188 51.777344 309.4375 49.707031 307.210938 47.683594 C 304.980469 45.664062 302.707031 43.703125 300.378906 41.792969 C 298.054688 39.886719 295.6875 38.035156 293.269531 36.242188 C 290.855469 34.449219 288.398438 32.71875 285.898438 31.046875 C 283.398438 29.375 280.859375 27.765625 278.28125 26.21875 C 275.699219 24.671875 273.085938 23.1875 270.433594 21.769531 C 267.78125 20.351562 265.097656 19 262.378906 17.710938 C 259.660156 16.425781 256.914062 15.203125 254.136719 14.050781 C 251.359375 12.898438 248.554688 11.816406 245.722656 10.800781 C 242.890625 9.785156 240.039062 8.839844 237.160156 7.964844 C 234.28125 7.089844 231.386719 6.285156 228.46875 5.550781 C 225.550781 4.820312 222.621094 4.15625 219.671875 3.570312 C 216.722656 2.980469 213.757812 2.460938 210.785156 2.019531 C 207.8125 1.574219 204.828125 1.203125 201.835938 0.90625 C 198.84375 0.605469 195.84375 0.382812 192.839844 0.230469 C 189.835938 0.0820312 186.832031 0.00390625 183.824219 0 Z M 183.824219 85.785156 C 185.832031 85.785156 187.832031 85.882812 189.828125 86.078125 C 191.828125 86.277344 193.808594 86.570312 195.777344 86.960938 C 197.746094 87.351562 199.691406 87.839844 201.609375 88.421875 C 203.53125 89.003906 205.417969 89.679688 207.273438 90.449219 C 209.125 91.214844 210.9375 92.074219 212.707031 93.019531 C 214.476562 93.964844 216.195312 94.996094 217.867188 96.109375 C 219.535156 97.226562 221.144531 98.417969 222.695312 99.691406 C 224.246094 100.964844 225.730469 102.3125 227.152344 103.730469 C 228.570312 105.148438 229.917969 106.636719 231.1875 108.1875 C 232.460938 109.738281 233.65625 111.347656 234.769531 113.015625 C 235.886719 114.683594 236.917969 116.40625 237.863281 118.175781 C 238.808594 119.945312 239.664062 121.757812 240.433594 123.609375 C 241.203125 125.464844 241.878906 127.351562 242.460938 129.273438 C 243.042969 131.191406 243.527344 133.136719 243.921875 135.105469 C 244.3125 137.074219 244.605469 139.054688 244.804688 141.054688 C 245 143.050781 245.097656 145.050781 245.097656 147.058594 C 245.097656 149.066406 245 151.066406 244.804688 153.066406 C 244.605469 155.0625 244.3125 157.042969 243.921875 159.011719 C 243.527344 160.980469 243.042969 162.925781 242.460938 164.847656 C 241.878906 166.765625 241.203125 168.652344 240.433594 170.507812 C 239.664062 172.363281 238.808594 174.171875 237.863281 175.945312 C 236.917969 177.714844 235.886719 179.433594 234.769531 181.101562 C 233.65625 182.769531 232.460938 184.378906 231.1875 185.929688 C 229.917969 187.480469 228.570312 188.96875 227.152344 190.386719 C 225.730469 191.804688 224.246094 193.152344 222.695312 194.425781 C 221.144531 195.699219 219.535156 196.890625 217.867188 198.007812 C 216.195312 199.121094 214.476562 200.152344 212.707031 201.097656 C 210.9375 202.042969 209.125 202.902344 207.273438 203.667969 C 205.417969 204.4375 203.53125 205.113281 201.609375 205.695312 C 199.691406 206.277344 197.746094 206.765625 195.777344 207.15625 C 193.808594 207.546875 191.828125 207.839844 189.828125 208.039062 C 187.832031 208.234375 185.832031 208.332031 183.824219 208.332031 C 181.816406 208.332031 179.816406 208.234375 177.816406 208.039062 C 175.820312 207.839844 173.835938 207.546875 171.871094 207.15625 C 169.902344 206.765625 167.957031 206.277344 166.035156 205.695312 C 164.117188 205.113281 162.230469 204.4375 160.375 203.667969 C 158.519531 202.902344 156.707031 202.042969 154.9375 201.097656 C 153.167969 200.152344 151.449219 199.121094 149.78125 198.007812 C 148.113281 196.890625 146.503906 195.699219 144.953125 194.425781 C 143.398438 193.152344 141.914062 191.804688 140.496094 190.386719 C 139.078125 188.96875 137.730469 187.480469 136.457031 185.929688 C 135.183594 184.378906 133.992188 182.769531 132.875 181.101562 C 131.761719 179.433594 130.730469 177.714844 129.785156 175.945312 C 128.839844 174.171875 127.980469 172.363281 127.214844 170.507812 C 126.445312 168.652344 125.769531 166.765625 125.1875 164.847656 C 124.605469 162.925781 124.117188 160.980469 123.726562 159.011719 C 123.335938 157.042969 123.039062 155.0625 122.84375 153.066406 C 122.648438 151.066406 122.550781 149.066406 122.550781 147.058594 C 122.550781 145.050781 122.648438 143.050781 122.84375 141.054688 C 123.039062 139.054688 123.335938 137.074219 123.726562 135.105469 C 124.117188 133.136719 124.605469 131.191406 125.1875 129.273438 C 125.769531 127.351562 126.445312 125.464844 127.214844 123.609375 C 127.980469 121.757812 128.839844 119.945312 129.785156 118.175781 C 130.730469 116.40625 131.761719 114.683594 132.875 113.015625 C 133.992188 111.347656 135.183594 109.738281 136.457031 108.1875 C 137.730469 106.636719 139.078125 105.148438 140.496094 103.730469 C 141.914062 102.3125 143.398438 100.964844 144.953125 99.691406 C 146.503906 98.417969 148.113281 97.226562 149.78125 96.109375 C 151.449219 94.996094 153.167969 93.964844 154.9375 93.019531 C 156.707031 92.074219 158.519531 91.214844 160.375 90.449219 C 162.230469 89.679688 164.117188 89.003906 166.035156 88.421875 C 167.957031 87.839844 169.902344 87.351562 171.871094 86.960938 C 173.835938 86.570312 175.820312 86.277344 177.816406 86.078125 C 179.816406 85.882812 181.816406 85.785156 183.824219 85.785156 Z M 233.296875 335.21875 C 229.597656 336.4375 225.859375 337.515625 222.078125 338.453125 C 218.300781 339.394531 214.492188 340.191406 210.65625 340.851562 C 206.816406 341.511719 202.960938 342.027344 199.082031 342.402344 C 195.207031 342.777344 191.324219 343.007812 187.429688 343.097656 C 183.539062 343.183594 179.648438 343.128906 175.757812 342.929688 C 171.867188 342.734375 167.992188 342.390625 164.128906 341.90625 C 160.265625 341.421875 156.425781 340.796875 152.605469 340.027344 C 148.789062 339.261719 145.003906 338.355469 141.253906 337.308594 C 137.503906 336.261719 133.796875 335.078125 130.132812 333.757812 C 126.46875 332.4375 122.859375 330.984375 119.304688 329.398438 C 115.746094 327.8125 112.253906 326.097656 108.824219 324.253906 C 105.394531 322.410156 102.039062 320.445312 98.753906 318.351562 C 95.46875 316.261719 92.265625 314.050781 89.140625 311.726562 C 86.019531 309.398438 82.988281 306.960938 80.046875 304.410156 C 77.105469 301.859375 74.261719 299.203125 71.511719 296.441406 C 68.765625 293.679688 66.125 290.824219 63.589844 287.867188 C 66.246094 284.796875 69.015625 281.835938 71.898438 278.976562 C 74.78125 276.117188 77.769531 273.375 80.863281 270.746094 C 83.957031 268.117188 87.144531 265.609375 90.429688 263.222656 C 93.714844 260.839844 97.085938 258.582031 100.542969 256.453125 C 104 254.328125 107.53125 252.335938 111.144531 250.476562 C 114.753906 248.621094 118.429688 246.90625 122.167969 245.328125 C 125.910156 243.753906 129.707031 242.320312 133.554688 241.035156 C 137.40625 239.75 141.300781 238.613281 145.238281 237.625 C 149.175781 236.640625 153.144531 235.804688 157.144531 235.117188 C 161.148438 234.433594 165.167969 233.90625 169.210938 233.527344 C 173.253906 233.152344 177.304688 232.929688 181.363281 232.863281 C 185.421875 232.796875 189.476562 232.886719 193.527344 233.128906 C 197.582031 233.375 201.617188 233.773438 205.636719 234.324219 C 209.660156 234.875 213.65625 235.582031 217.621094 236.441406 C 221.589844 237.296875 225.519531 238.308594 229.410156 239.464844 C 233.300781 240.625 237.140625 241.929688 240.929688 243.382812 C 237.699219 246.769531 234.816406 250.429688 232.28125 254.367188 C 229.75 258.304688 227.613281 262.445312 225.871094 266.789062 C 224.128906 271.132812 222.8125 275.605469 221.925781 280.203125 C 221.035156 284.796875 220.589844 289.4375 220.589844 294.117188 C 220.574219 297.765625 220.839844 301.394531 221.378906 305 C 221.914062 308.609375 222.722656 312.15625 223.800781 315.640625 C 224.878906 319.125 226.214844 322.507812 227.804688 325.789062 C 229.398438 329.074219 231.226562 332.214844 233.296875 335.21875 Z M 294.117188 343.136719 C 292.519531 343.117188 290.921875 343.019531 289.332031 342.84375 C 287.742188 342.667969 286.164062 342.417969 284.597656 342.089844 C 283.03125 341.761719 281.484375 341.359375 279.960938 340.882812 C 278.433594 340.40625 276.933594 339.859375 275.457031 339.234375 C 273.984375 338.613281 272.542969 337.921875 271.136719 337.160156 C 269.730469 336.402344 268.363281 335.574219 267.035156 334.679688 C 265.707031 333.789062 264.425781 332.832031 263.191406 331.816406 C 261.957031 330.800781 260.773438 329.726562 259.640625 328.59375 C 258.511719 327.460938 257.4375 326.28125 256.417969 325.042969 C 255.402344 323.808594 254.449219 322.527344 253.554688 321.199219 C 252.660156 319.875 251.835938 318.507812 251.074219 317.097656 C 250.3125 315.691406 249.621094 314.25 249 312.777344 C 248.378906 311.304688 247.828125 309.804688 247.351562 308.277344 C 246.875 306.75 246.472656 305.203125 246.144531 303.636719 C 245.816406 302.070312 245.566406 300.492188 245.390625 298.902344 C 245.214844 297.3125 245.117188 295.71875 245.097656 294.117188 C 245.097656 292.511719 245.175781 290.910156 245.335938 289.3125 C 245.492188 287.714844 245.726562 286.128906 246.039062 284.554688 C 246.351562 282.980469 246.742188 281.425781 247.207031 279.886719 C 247.675781 278.351562 248.214844 276.84375 248.828125 275.359375 C 249.445312 273.875 250.128906 272.425781 250.886719 271.011719 C 251.644531 269.59375 252.46875 268.21875 253.359375 266.882812 C 254.25 265.550781 255.207031 264.261719 256.226562 263.019531 C 257.242188 261.777344 258.320312 260.589844 259.457031 259.457031 C 260.589844 258.320312 261.777344 257.242188 263.019531 256.226562 C 264.261719 255.207031 265.550781 254.25 266.882812 253.359375 C 268.21875 252.46875 269.59375 251.644531 271.011719 250.886719 C 272.425781 250.128906 273.875 249.445312 275.359375 248.828125 C 276.84375 248.214844 278.351562 247.675781 279.886719 247.207031 C 281.425781 246.742188 282.980469 246.351562 284.554688 246.039062 C 286.128906 245.726562 287.714844 245.492188 289.3125 245.335938 C 290.910156 245.175781 292.511719 245.097656 294.117188 245.097656 C 295.722656 245.097656 297.324219 245.175781 298.921875 245.335938 C 300.519531 245.492188 302.105469 245.726562 303.679688 246.039062 C 305.253906 246.351562 306.8125 246.742188 308.347656 247.207031 C 309.882812 247.675781 311.394531 248.214844 312.875 248.828125 C 314.359375 249.445312 315.808594 250.128906 317.226562 250.886719 C 318.640625 251.644531 320.015625 252.46875 321.351562 253.359375 C 322.6875 254.25 323.972656 255.207031 325.214844 256.226562 C 326.457031 257.242188 327.644531 258.320312 328.78125 259.457031 C 329.914062 260.589844 330.992188 261.777344 332.011719 263.019531 C 333.027344 264.261719 333.984375 265.550781 334.875 266.882812 C 335.769531 268.21875 336.59375 269.59375 337.347656 271.011719 C 338.105469 272.425781 338.792969 273.875 339.40625 275.359375 C 340.019531 276.84375 340.558594 278.351562 341.027344 279.886719 C 341.492188 281.425781 341.882812 282.980469 342.195312 284.554688 C 342.507812 286.128906 342.742188 287.714844 342.902344 289.3125 C 343.058594 290.910156 343.136719 292.511719 343.136719 294.117188 C 343.136719 295.722656 343.058594 297.324219 342.902344 298.921875 C 342.742188 300.519531 342.507812 302.105469 342.195312 303.679688 C 341.882812 305.253906 341.492188 306.8125 341.027344 308.347656 C 340.558594 309.882812 340.019531 311.394531 339.40625 312.875 C 338.792969 314.359375 338.105469 315.808594 337.347656 317.226562 C 336.59375 318.640625 335.769531 320.015625 334.875 321.351562 C 333.984375 322.6875 333.027344 323.972656 332.011719 325.214844 C 330.992188 326.457031 329.914062 327.644531 328.78125 328.78125 C 327.644531 329.914062 326.457031 330.992188 325.214844 332.011719 C 323.972656 333.027344 322.6875 333.984375 321.351562 334.875 C 320.015625 335.769531 318.640625 336.59375 317.226562 337.347656 C 315.808594 338.105469 314.359375 338.792969 312.875 339.40625 C 311.394531 340.019531 309.882812 340.558594 308.347656 341.027344 C 306.8125 341.492188 305.253906 341.882812 303.679688 342.195312 C 302.105469 342.507812 300.519531 342.742188 298.921875 342.902344 C 297.324219 343.058594 295.722656 343.136719 294.117188 343.136719 Z M 294.117188 343.136719 " fill-opacity="1" fill-rule="nonzero"/><path fill="#000000" d="M 318.628906 281.863281 L 306.371094 281.863281 L 306.371094 269.609375 C 306.371094 268.804688 306.292969 268.007812 306.136719 267.21875 C 305.980469 266.429688 305.746094 265.660156 305.441406 264.917969 C 305.132812 264.175781 304.753906 263.46875 304.308594 262.800781 C 303.859375 262.128906 303.351562 261.511719 302.78125 260.941406 C 302.214844 260.375 301.59375 259.867188 300.925781 259.417969 C 300.257812 258.972656 299.550781 258.59375 298.808594 258.285156 C 298.0625 257.976562 297.296875 257.746094 296.507812 257.589844 C 295.71875 257.429688 294.921875 257.351562 294.117188 257.351562 C 293.3125 257.351562 292.515625 257.429688 291.726562 257.589844 C 290.9375 257.746094 290.171875 257.976562 289.429688 258.285156 C 288.683594 258.59375 287.976562 258.972656 287.308594 259.417969 C 286.640625 259.867188 286.019531 260.375 285.453125 260.941406 C 284.882812 261.511719 284.375 262.128906 283.929688 262.800781 C 283.480469 263.46875 283.101562 264.175781 282.796875 264.917969 C 282.488281 265.660156 282.253906 266.429688 282.097656 267.21875 C 281.941406 268.007812 281.863281 268.804688 281.863281 269.609375 L 281.863281 281.863281 L 269.609375 281.863281 C 268.804688 281.863281 268.007812 281.941406 267.21875 282.097656 C 266.429688 282.253906 265.660156 282.488281 264.917969 282.796875 C 264.175781 283.101562 263.46875 283.480469 262.800781 283.929688 C 262.128906 284.375 261.511719 284.882812 260.941406 285.453125 C 260.375 286.019531 259.867188 286.640625 259.417969 287.308594 C 258.972656 287.976562 258.59375 288.683594 258.285156 289.429688 C 257.976562 290.171875 257.746094 290.9375 257.589844 291.726562 C 257.429688 292.515625 257.351562 293.3125 257.351562 294.117188 C 257.351562 294.921875 257.429688 295.71875 257.589844 296.507812 C 257.746094 297.296875 257.976562 298.0625 258.285156 298.808594 C 258.59375 299.550781 258.972656 300.257812 259.417969 300.925781 C 259.867188 301.59375 260.375 302.214844 260.941406 302.78125 C 261.511719 303.351562 262.128906 303.859375 262.800781 304.308594 C 263.46875 304.753906 264.175781 305.132812 264.917969 305.441406 C 265.660156 305.746094 266.429688 305.980469 267.21875 306.136719 C 268.007812 306.292969 268.804688 306.371094 269.609375 306.371094 L 281.863281 306.371094 L 281.863281 318.628906 C 281.863281 319.433594 281.941406 320.230469 282.097656 321.019531 C 282.253906 321.808594 282.488281 322.574219 282.796875 323.316406 C 283.101562 324.058594 283.480469 324.765625 283.929688 325.4375 C 284.375 326.105469 284.882812 326.722656 285.453125 327.292969 C 286.019531 327.863281 286.640625 328.371094 287.308594 328.816406 C 287.976562 329.265625 288.683594 329.640625 289.429688 329.949219 C 290.171875 330.257812 290.9375 330.488281 291.726562 330.648438 C 292.515625 330.804688 293.3125 330.882812 294.117188 330.882812 C 294.921875 330.882812 295.71875 330.804688 296.507812 330.648438 C 297.296875 330.488281 298.0625 330.257812 298.808594 329.949219 C 299.550781 329.640625 300.257812 329.265625 300.925781 328.816406 C 301.59375 328.371094 302.214844 327.863281 302.78125 327.292969 C 303.351562 326.722656 303.859375 326.105469 304.308594 325.4375 C 304.753906 324.765625 305.132812 324.058594 305.441406 323.316406 C 305.746094 322.574219 305.980469 321.808594 306.136719 321.019531 C 306.292969 320.230469 306.371094 319.433594 306.371094 318.628906 L 306.371094 306.371094 L 318.628906 306.371094 C 319.433594 306.371094 320.230469 306.292969 321.019531 306.136719 C 321.808594 305.980469 322.574219 305.746094 323.316406 305.441406 C 324.058594 305.132812 324.765625 304.753906 325.4375 304.308594 C 326.105469 303.859375 326.722656 303.351562 327.292969 302.78125 C 327.863281 302.214844 328.371094 301.59375 328.816406 300.925781 C 329.265625 300.257812 329.640625 299.550781 329.949219 298.808594 C 330.257812 298.0625 330.488281 297.296875 330.648438 296.507812 C 330.804688 295.71875 330.882812 294.921875 330.882812 294.117188 C 330.882812 293.3125 330.804688 292.515625 330.648438 291.726562 C 330.488281 290.9375 330.257812 290.171875 329.949219 289.429688 C 329.640625 288.683594 329.265625 287.976562 328.816406 287.308594 C 328.371094 286.640625 327.863281 286.019531 327.292969 285.453125 C 326.722656 284.882812 326.105469 284.375 325.4375 283.929688 C 324.765625 283.480469 324.058594 283.101562 323.316406 282.796875 C 322.574219 282.488281 321.808594 282.253906 321.019531 282.097656 C 320.230469 281.941406 319.433594 281.863281 318.628906 281.863281 Z M 318.628906 281.863281 " fill-opacity="1" fill-rule="nonzero"/></svg>