<svg xmlns="http://www.w3.org/2000/svg" xmlns:xlink="http://www.w3.org/1999/xlink" width="500" zoomAndPan="magnify" viewBox="0 0 375 374.999991" height="500" preserveAspectRatio="xMidYMid meet" version="1.0"><path fill="#53b4ed" d="M 374.996094 187.496094 C 374.996094 190.566406 374.921875 193.632812 374.769531 196.695312 C 374.621094 199.761719 374.394531 202.820312 374.09375 205.875 C 373.792969 208.929688 373.417969 211.972656 372.96875 215.007812 C 372.515625 218.042969 371.992188 221.066406 371.394531 224.074219 C 370.796875 227.085938 370.125 230.078125 369.378906 233.054688 C 368.632812 236.03125 367.8125 238.988281 366.921875 241.925781 C 366.03125 244.859375 365.070312 247.773438 364.035156 250.664062 C 363.003906 253.550781 361.898438 256.414062 360.722656 259.25 C 359.550781 262.082031 358.308594 264.886719 356.996094 267.664062 C 355.683594 270.4375 354.304688 273.175781 352.859375 275.882812 C 351.410156 278.589844 349.898438 281.257812 348.320312 283.890625 C 346.742188 286.523438 345.101562 289.113281 343.398438 291.664062 C 341.691406 294.214844 339.925781 296.722656 338.097656 299.1875 C 336.269531 301.652344 334.382812 304.070312 332.4375 306.445312 C 330.492188 308.816406 328.488281 311.136719 326.425781 313.414062 C 324.367188 315.6875 322.25 317.90625 320.082031 320.078125 C 317.910156 322.246094 315.6875 324.363281 313.414062 326.421875 C 311.140625 328.484375 308.820312 330.488281 306.445312 332.433594 C 304.074219 334.378906 301.65625 336.269531 299.191406 338.097656 C 296.726562 339.921875 294.21875 341.691406 291.667969 343.394531 C 289.117188 345.101562 286.523438 346.742188 283.894531 348.320312 C 281.261719 349.894531 278.589844 351.40625 275.886719 352.855469 C 273.179688 354.300781 270.4375 355.679688 267.664062 356.992188 C 264.890625 358.304688 262.085938 359.546875 259.25 360.722656 C 256.417969 361.894531 253.554688 363 250.664062 364.035156 C 247.777344 365.066406 244.863281 366.03125 241.925781 366.921875 C 238.992188 367.8125 236.035156 368.628906 233.058594 369.375 C 230.082031 370.121094 227.089844 370.792969 224.078125 371.390625 C 221.070312 371.988281 218.046875 372.515625 215.011719 372.964844 C 211.976562 373.414062 208.929688 373.789062 205.878906 374.089844 C 202.824219 374.390625 199.765625 374.617188 196.699219 374.769531 C 193.636719 374.917969 190.570312 374.992188 187.5 374.992188 C 184.429688 374.992188 181.363281 374.917969 178.300781 374.769531 C 175.234375 374.617188 172.175781 374.390625 169.121094 374.089844 C 166.066406 373.789062 163.023438 373.414062 159.988281 372.964844 C 156.953125 372.515625 153.929688 371.988281 150.921875 371.390625 C 147.910156 370.792969 144.917969 370.121094 141.941406 369.375 C 138.964844 368.628906 136.007812 367.8125 133.074219 366.921875 C 130.136719 366.03125 127.222656 365.066406 124.335938 364.035156 C 121.445312 363 118.582031 361.894531 115.746094 360.722656 C 112.914062 359.546875 110.109375 358.304688 107.335938 356.992188 C 104.5625 355.679688 101.820312 354.300781 99.113281 352.855469 C 96.410156 351.40625 93.738281 349.894531 91.105469 348.320312 C 88.476562 346.742188 85.882812 345.101562 83.332031 343.394531 C 80.78125 341.691406 78.273438 339.921875 75.808594 338.097656 C 73.34375 336.269531 70.925781 334.378906 68.554688 332.433594 C 66.179688 330.488281 63.859375 328.484375 61.585938 326.421875 C 59.3125 324.363281 57.089844 322.246094 54.917969 320.078125 C 52.75 317.90625 50.632812 315.6875 48.574219 313.414062 C 46.511719 311.136719 44.507812 308.816406 42.5625 306.445312 C 40.617188 304.070312 38.730469 301.652344 36.902344 299.1875 C 35.074219 296.722656 33.308594 294.214844 31.601562 291.664062 C 29.898438 289.113281 28.257812 286.523438 26.679688 283.890625 C 25.101562 281.257812 23.589844 278.589844 22.140625 275.882812 C 20.695312 273.175781 19.316406 270.4375 18.003906 267.664062 C 16.691406 264.886719 15.449219 262.082031 14.277344 259.25 C 13.101562 256.414062 11.996094 253.550781 10.964844 250.664062 C 9.929688 247.773438 8.96875 244.859375 8.078125 241.925781 C 7.1875 238.988281 6.367188 236.03125 5.621094 233.054688 C 4.875 230.078125 4.203125 227.085938 3.605469 224.074219 C 3.007812 221.066406 2.484375 218.042969 2.03125 215.007812 C 1.582031 211.972656 1.207031 208.929688 0.90625 205.875 C 0.605469 202.820312 0.378906 199.761719 0.230469 196.695312 C 0.078125 193.632812 0.00390625 190.566406 0.00390625 187.496094 C 0.00390625 184.429688 0.078125 181.363281 0.230469 178.296875 C 0.378906 175.230469 0.605469 172.171875 0.90625 169.117188 C 1.207031 166.066406 1.582031 163.019531 2.03125 159.984375 C 2.484375 156.949219 3.007812 153.925781 3.605469 150.917969 C 4.203125 147.910156 4.875 144.914062 5.621094 141.9375 C 6.367188 138.960938 7.1875 136.003906 8.078125 133.070312 C 8.96875 130.132812 9.929688 127.21875 10.964844 124.332031 C 11.996094 121.441406 13.101562 118.578125 14.277344 115.746094 C 15.449219 112.910156 16.691406 110.105469 18.003906 107.332031 C 19.316406 104.558594 20.695312 101.816406 22.140625 99.113281 C 23.589844 96.40625 25.101562 93.734375 26.679688 91.105469 C 28.257812 88.472656 29.898438 85.878906 31.601562 83.328125 C 33.308594 80.777344 35.074219 78.269531 36.902344 75.804688 C 38.730469 73.339844 40.617188 70.921875 42.5625 68.550781 C 44.507812 66.179688 46.511719 63.855469 48.574219 61.582031 C 50.632812 59.308594 52.75 57.085938 54.917969 54.917969 C 57.089844 52.746094 59.3125 50.632812 61.585938 48.570312 C 63.859375 46.511719 66.179688 44.507812 68.554688 42.558594 C 70.925781 40.613281 73.34375 38.726562 75.808594 36.898438 C 78.273438 35.070312 80.78125 33.304688 83.332031 31.597656 C 85.882812 29.894531 88.476562 28.253906 91.105469 26.675781 C 93.738281 25.097656 96.410156 23.585938 99.113281 22.140625 C 101.820312 20.691406 104.5625 19.3125 107.335938 18 C 110.109375 16.691406 112.914062 15.445312 115.746094 14.273438 C 118.582031 13.097656 121.445312 11.992188 124.335938 10.960938 C 127.222656 9.925781 130.136719 8.964844 133.074219 8.074219 C 136.007812 7.183594 138.964844 6.363281 141.941406 5.617188 C 144.917969 4.875 147.910156 4.203125 150.921875 3.601562 C 153.929688 3.003906 156.953125 2.480469 159.988281 2.03125 C 163.023438 1.578125 166.066406 1.203125 169.121094 0.902344 C 172.175781 0.601562 175.234375 0.375 178.300781 0.226562 C 181.363281 0.0742188 184.429688 0 187.5 0 C 190.570312 0 193.636719 0.0742188 196.699219 0.226562 C 199.765625 0.375 202.824219 0.601562 205.878906 0.902344 C 208.929688 1.203125 211.976562 1.578125 215.011719 2.03125 C 218.046875 2.480469 221.070312 3.003906 224.078125 3.601562 C 227.089844 4.203125 230.082031 4.875 233.058594 5.617188 C 236.035156 6.363281 238.992188 7.183594 241.925781 8.074219 C 244.863281 8.964844 247.777344 9.925781 250.664062 10.960938 C 253.554688 11.992188 256.417969 13.097656 259.25 14.273438 C 262.085938 15.445312 264.890625 16.691406 267.664062 18 C 270.4375 19.3125 273.179688 20.691406 275.886719 22.140625 C 278.589844 23.585938 281.261719 25.097656 283.894531 26.675781 C 286.523438 28.253906 289.117188 29.894531 291.667969 31.597656 C 294.21875 33.304688 296.726562 35.070312 299.191406 36.898438 C 301.65625 38.726562 304.074219 40.613281 306.445312 42.558594 C 308.820312 44.507812 311.140625 46.511719 313.414062 48.570312 C 315.6875 50.632812 317.910156 52.746094 320.082031 54.917969 C 322.25 57.085938 324.367188 59.308594 326.425781 61.582031 C 328.488281 63.855469 330.492188 66.179688 332.4375 68.550781 C 334.382812 70.921875 336.269531 73.339844 338.097656 75.804688 C 339.925781 78.269531 341.691406 80.777344 343.398438 83.328125 C 345.101562 85.878906 346.742188 88.472656 348.320312 91.105469 C 349.898438 93.734375 351.410156 96.40625 352.859375 99.113281 C 354.304688 101.816406 355.683594 104.558594 356.996094 107.332031 C 358.308594 110.105469 359.550781 112.910156 360.722656 115.746094 C 361.898438 118.578125 363.003906 121.441406 364.035156 124.332031 C 365.070312 127.21875 366.03125 130.132812 366.921875 133.070312 C 367.8125 136.003906 368.632812 138.960938 369.378906 141.9375 C 370.125 144.914062 370.796875 147.910156 371.394531 150.917969 C 371.992188 153.925781 372.515625 156.949219 372.96875 159.984375 C 373.417969 163.019531 373.792969 166.066406 374.09375 169.117188 C 374.394531 172.171875 374.621094 175.230469 374.769531 178.296875 C 374.921875 181.363281 374.996094 184.429688 374.996094 187.496094 Z M 374.996094 187.496094 " fill-opacity="1" fill-rule="nonzero"/><path fill="#3091c9" d="M 260.269531 172.132812 L 258.523438 186.664062 L 256.398438 185.519531 L 248.914062 197.882812 L 233.980469 197.882812 C 205.34375 197.882812 181.910156 221.320312 181.910156 249.953125 L 181.910156 374.910156 C 183.765625 374.964844 185.632812 375 187.5 375 C 279.386719 375 355.824219 308.898438 371.882812 221.660156 C 362.574219 207.375 346.460938 197.882812 328.230469 197.882812 L 313.296875 197.882812 L 306.199219 185.292969 L 303.546875 186.742188 L 301.886719 172.402344 C 309.492188 164.964844 314.5625 152.960938 314.5625 143.496094 L 314.5625 143.457031 C 323.046875 142.605469 328.785156 124.425781 323.113281 118.007812 C 320.625 115.183594 316.996094 115.34375 314.5625 117.945312 C 315.46875 114.933594 319.726562 108.714844 319.71875 101.714844 C 319.714844 96.816406 316.332031 89.410156 311.664062 83.363281 C 297.3125 64.75 272.1875 68.074219 266.765625 80.683594 C 266.71875 80.8125 266.675781 80.941406 266.621094 81.070312 C 253.339844 74.917969 231.40625 93.765625 247.871094 117.945312 C 245.429688 115.34375 241.804688 115.183594 239.316406 118.007812 C 233.644531 124.425781 239.375 142.605469 247.871094 143.457031 L 247.871094 143.496094 C 247.871094 152.851562 252.816406 164.6875 260.269531 172.132812 Z M 260.269531 172.132812 " fill-opacity="1" fill-rule="evenodd"/><path fill="#3091c9" d="M 73.058594 172.132812 L 71.3125 186.664062 L 69.1875 185.519531 L 61.703125 197.882812 L 46.769531 197.882812 C 28.546875 197.882812 12.425781 207.378906 3.117188 221.660156 C 19.179688 308.90625 95.613281 375 187.5 375 C 189.367188 375 191.234375 374.964844 193.089844 374.910156 L 193.089844 249.953125 C 193.089844 221.3125 169.660156 197.882812 141.019531 197.882812 L 126.085938 197.882812 L 118.988281 185.292969 L 116.335938 186.742188 L 114.675781 172.402344 C 122.28125 164.964844 127.34375 152.960938 127.34375 143.496094 L 127.34375 143.457031 C 135.835938 142.605469 141.570312 124.425781 135.902344 118.007812 C 133.414062 115.183594 129.785156 115.34375 127.34375 117.945312 C 128.25 114.933594 132.507812 108.714844 132.507812 101.714844 C 132.503906 96.816406 129.121094 89.410156 124.453125 83.363281 C 110.09375 64.75 84.976562 68.074219 79.554688 80.683594 C 79.5 80.8125 79.460938 80.941406 79.410156 81.070312 C 66.121094 74.917969 44.195312 93.765625 60.660156 117.945312 C 58.21875 115.34375 54.59375 115.183594 52.097656 118.007812 C 46.433594 124.425781 52.164062 142.605469 60.660156 143.457031 L 60.660156 143.496094 C 60.660156 152.851562 65.605469 164.6875 73.058594 172.132812 Z M 73.058594 172.132812 " fill-opacity="1" fill-rule="evenodd"/><path fill="#dea767" d="M 187.5 133.492188 L 163.636719 143.617188 L 156.480469 203.238281 L 218.261719 203.238281 L 211.363281 143.617188 Z M 187.5 133.492188 " fill-opacity="1" fill-rule="evenodd"/><path fill="#154e5e" d="M 126.414062 203.238281 L 248.59375 203.238281 C 285.71875 203.238281 316.09375 233.609375 316.09375 270.738281 L 316.09375 323.941406 C 282.527344 355.589844 237.28125 375 187.5 375 C 137.722656 375 92.480469 355.589844 58.90625 323.941406 L 58.90625 270.738281 C 58.90625 233.609375 89.28125 203.238281 126.414062 203.238281 Z M 126.414062 203.238281 " fill-opacity="1" fill-rule="evenodd"/><path fill="#ffffff" d="M 145.773438 203.238281 L 229.226562 203.238281 L 229.226562 370.332031 C 215.8125 373.382812 201.847656 375 187.5 375 C 173.160156 375 159.195312 373.382812 145.773438 370.332031 Z M 145.773438 203.238281 " fill-opacity="1" fill-rule="evenodd"/><path fill="#e6e6e6" d="M 187.5 203.238281 L 157.511719 238.902344 L 145.765625 203.238281 Z M 187.5 203.238281 " fill-opacity="1" fill-rule="evenodd"/><path fill="#ffffff" d="M 155.472656 187.203125 L 185.222656 203.238281 L 157.382812 232.066406 L 145.773438 203.238281 Z M 155.472656 187.203125 " fill-opacity="1" fill-rule="evenodd"/><path fill="#e6e6e6" d="M 187.5 203.238281 L 217.488281 238.902344 L 229.226562 203.238281 Z M 187.5 203.238281 " fill-opacity="1" fill-rule="evenodd"/><path fill="#ffffff" d="M 220.035156 186.917969 L 190.160156 203.238281 L 217.617188 232.066406 L 229.226562 203.238281 Z M 220.035156 186.917969 " fill-opacity="1" fill-rule="evenodd"/><path fill="#ffc57a" d="M 180.101562 56.859375 L 195.183594 56.859375 C 214.808594 56.859375 230.863281 72.582031 230.863281 91.796875 L 230.863281 132.726562 C 230.863281 151.933594 214.800781 179.1875 195.183594 179.1875 L 180.101562 179.1875 C 160.484375 179.1875 144.417969 151.945312 144.417969 132.726562 L 144.417969 91.796875 C 144.417969 72.574219 160.472656 56.859375 180.101562 56.859375 Z M 180.101562 56.859375 " fill-opacity="1" fill-rule="evenodd"/><path fill="#154e5e" d="M 144.417969 99.601562 L 148.644531 81.039062 C 148.644531 81.039062 166.058594 82.375 175.003906 56.9375 C 160.199219 37.273438 120.15625 63.988281 144.417969 99.601562 Z M 144.417969 99.601562 " fill-opacity="1" fill-rule="evenodd"/><path fill="#f7ba74" d="M 144.417969 132.683594 C 133.410156 131.574219 125.972656 108.011719 133.320312 99.6875 C 136.550781 96.03125 141.253906 96.230469 144.417969 99.601562 Z M 144.417969 132.683594 " fill-opacity="1" fill-rule="evenodd"/><path fill="#f7ba74" d="M 230.863281 132.683594 C 241.875 131.574219 249.304688 108.011719 241.960938 99.6875 C 238.730469 96.03125 234.027344 96.230469 230.863281 99.601562 Z M 230.863281 132.683594 " fill-opacity="1" fill-rule="evenodd"/><path fill="#154e5e" d="M 252.269531 73.589844 C 240.390625 79.460938 238.578125 72.859375 227.117188 54.777344 C 210.796875 29.039062 175.941406 34.960938 168.914062 51.308594 C 153.6875 86.761719 238.292969 123.476562 252.269531 73.589844 Z M 252.269531 73.589844 " fill-opacity="1" fill-rule="evenodd"/><path fill="#ff576b" d="M 187.5 355.859375 L 165.925781 327.828125 L 181.027344 211.097656 L 187.5 203.238281 L 193.972656 211.097656 L 209.082031 327.828125 Z M 187.5 355.859375 " fill-opacity="1" fill-rule="evenodd"/></svg>